<svg id="Layer_1" data-name="Layer 1" xmlns="http://www.w3.org/2000/svg" width="88.71" height="21.97" viewBox="0 0 88.71 21.97">
  <defs>
    <style>
      .cls-1 {
        fill: rgb(58, 58, 56);
      }
    </style>
  </defs>
  <title>logo-corcoran-sunshine</title>
  <path class="cls-1" d="M3.93,17C2.66,17,.65,19.2.65,21.5A1.36,1.36,0,0,0,1.9,23.13c0.75,0,1.7-.62,2.26-2.2H3.87c-0.3.83-1,1.8-1.68,1.8a0.79,0.79,0,0,1-.71-0.89c0-1.29,1.17-4.52,2.18-4.52a0.38,0.38,0,0,1,.32.47,0.46,0.46,0,0,0,.43.5,0.43,0.43,0,0,0,.39-0.5A0.84,0.84,0,0,0,3.93,17" transform="translate(-0.65 -1.16)"/>
  <path class="cls-1" d="M8.42,17c-1.51,0-3,2.13-3,4.12,0,0.29,0,2,1.47,2,1.68,0,2.92-2.26,2.92-4.16,0-1.43-.75-2-1.44-2M7,22.82a0.83,0.83,0,0,1-.75-0.92c0-1.11.75-4.61,2.16-4.61a0.81,0.81,0,0,1,.73,1c0,0.65-.63,4.53-2.14,4.53" transform="translate(-0.65 -1.16)"/>
  <path class="cls-1" d="M14.82,17a2,2,0,0,0-1.23,1.24c-0.11.21-.59,1.25-0.68,1.5l0,0A6.88,6.88,0,0,0,13.21,18c0-.76-0.33-1-0.59-1-0.7,0-1.34,1.12-1.62,1.9h0.3a2.45,2.45,0,0,1,1.08-1.41c0.2,0,.21.28,0.21,0.4a5.08,5.08,0,0,1-.33,1.45L11.15,23H12l0.15-.5c0.06-.2.16-0.5,0.27-0.81,0.48-1.32,1.48-4.06,2-4.06a0.2,0.2,0,0,1,.15.08A0.52,0.52,0,0,0,15,18a0.45,0.45,0,0,0,.42-0.48A0.53,0.53,0,0,0,14.82,17" transform="translate(-0.65 -1.16)"/>
  <path class="cls-1" d="M18.57,17c-1.27,0-3.28,2.23-3.28,4.53a1.37,1.37,0,0,0,1.25,1.63c0.75,0,1.7-.62,2.26-2.2H18.51c-0.3.83-1,1.8-1.68,1.8a0.79,0.79,0,0,1-.71-0.89c0-1.29,1.16-4.52,2.18-4.52a0.38,0.38,0,0,1,.32.47,0.46,0.46,0,0,0,.43.5,0.43,0.43,0,0,0,.39-0.5A0.84,0.84,0,0,0,18.57,17" transform="translate(-0.65 -1.16)"/>
  <path class="cls-1" d="M23.06,17c-1.51,0-2.95,2.13-2.95,4.12,0,0.29,0,2,1.47,2,1.68,0,2.92-2.26,2.92-4.16,0-1.43-.75-2-1.44-2m-1.45,5.84a0.83,0.83,0,0,1-.75-0.92c0-1.11.75-4.61,2.16-4.61a0.81,0.81,0,0,1,.73,1c0,0.65-.64,4.53-2.14,4.53" transform="translate(-0.65 -1.16)"/>
  <path class="cls-1" d="M29.46,17a2,2,0,0,0-1.22,1.24c-0.12.21-.59,1.25-0.68,1.5l0,0A6.89,6.89,0,0,0,27.85,18c0-.76-0.33-1-0.59-1-0.7,0-1.34,1.12-1.63,1.9h0.3A2.48,2.48,0,0,1,27,17.46c0.2,0,.21.28,0.21,0.4a5,5,0,0,1-.33,1.45L25.79,23h0.84l0.16-.5c0.06-.2.16-0.5,0.28-0.81,0.47-1.32,1.48-4.06,2-4.06a0.2,0.2,0,0,1,.16.08,0.5,0.5,0,0,0,.39.23A0.44,0.44,0,0,0,30,17.51,0.53,0.53,0,0,0,29.46,17" transform="translate(-0.65 -1.16)"/>
  <path class="cls-1" d="M33.26,17c-1.27,0-3.48,2.36-3.48,4.6A1.35,1.35,0,0,0,31,23.13a3,3,0,0,0,2-1.61l0,0a2.64,2.64,0,0,0-.15.73,0.75,0.75,0,0,0,.69.85,2.66,2.66,0,0,0,1.73-1.67H35l-0.06.08a2,2,0,0,1-1,1,0.26,0.26,0,0,1-.26-0.29,6.86,6.86,0,0,1,.27-1.08l1.25-4.12H34.3l-0.16.59h0a0.82,0.82,0,0,0-.85-0.7m-2.07,5.76c-0.56,0-.58-0.59-0.58-0.94,0-1.22,1.44-4.45,2.71-4.45a0.61,0.61,0,0,1,.59.7,9.89,9.89,0,0,1-.79,2.71A4.42,4.42,0,0,1,32,22.3a1.5,1.5,0,0,1-.83.43" transform="translate(-0.65 -1.16)"/>
  <path class="cls-1" d="M40.48,17c-0.44,0-1.35.3-2.43,2.55l0,0a6.68,6.68,0,0,0,.46-1.84A0.59,0.59,0,0,0,37.93,17c-0.46,0-1.05.48-1.67,1.6h0.33a1.88,1.88,0,0,1,1-1,0.19,0.19,0,0,1,.19.23,2.64,2.64,0,0,1-.15.57c0,0.06-.07.22-0.11,0.38L37.41,19l-1.24,4H37l0.35-1.12a12.81,12.81,0,0,1,1.46-3.27,2.29,2.29,0,0,1,1.41-1.24,0.4,0.4,0,0,1,.42.43,4.2,4.2,0,0,1-.3,1.13L39.62,21.1a4.17,4.17,0,0,0-.33,1.26,0.74,0.74,0,0,0,.77.77c0.92,0,1.57-1.17,1.76-1.53H41.46a1.73,1.73,0,0,1-1.09,1.1,0.28,0.28,0,0,1-.26-0.29,2.63,2.63,0,0,1,.2-0.7l0.1-.3,0.75-2.25A3.72,3.72,0,0,0,41.44,18a0.94,0.94,0,0,0-1-1" transform="translate(-0.65 -1.16)"/>
  <path class="cls-1" d="M83,17c-0.45,0-1.35.3-2.43,2.55l0,0A6.74,6.74,0,0,0,81,17.65,0.59,0.59,0,0,0,80.46,17c-0.46,0-1,.48-1.67,1.6h0.33a1.87,1.87,0,0,1,1-1,0.19,0.19,0,0,1,.19.23,2.81,2.81,0,0,1-.14.57c0,0.06-.07.22-0.12,0.38L79.94,19,78.7,23h0.86l0.35-1.12a13,13,0,0,1,1.46-3.27,2.29,2.29,0,0,1,1.41-1.24,0.4,0.4,0,0,1,.42.43,4,4,0,0,1-.3,1.13L82.14,21.1a4.25,4.25,0,0,0-.33,1.26,0.74,0.74,0,0,0,.78.77c0.92,0,1.57-1.17,1.76-1.53H84a1.72,1.72,0,0,1-1.1,1.1,0.27,0.27,0,0,1-.25-0.29,2.65,2.65,0,0,1,.2-0.7c0-.12.09-0.26,0.1-0.3l0.75-2.25A3.81,3.81,0,0,0,84,18a0.94,0.94,0,0,0-1-1" transform="translate(-0.65 -1.16)"/>
  <path class="cls-1" d="M61.6,17c-0.45,0-1.35.3-2.43,2.55l0,0a6.71,6.71,0,0,0,.46-1.84A0.59,0.59,0,0,0,59,17c-0.46,0-1.05.48-1.67,1.6h0.33a1.88,1.88,0,0,1,1-1,0.19,0.19,0,0,1,.19.23,2.83,2.83,0,0,1-.15.57c0,0.06-.07.22-0.11,0.38L58.53,19l-1.24,4h0.86l0.35-1.12A12.85,12.85,0,0,1,60,18.64a2.3,2.3,0,0,1,1.41-1.24,0.39,0.39,0,0,1,.42.43,4.07,4.07,0,0,1-.3,1.13L60.73,21.1a4.25,4.25,0,0,0-.33,1.26,0.74,0.74,0,0,0,.78.77c0.92,0,1.57-1.17,1.76-1.53H62.57a1.73,1.73,0,0,1-1.1,1.1,0.27,0.27,0,0,1-.26-0.29,2.59,2.59,0,0,1,.2-0.7c0-.12.09-0.26,0.1-0.3l0.75-2.25A3.76,3.76,0,0,0,62.56,18a0.94,0.94,0,0,0-1-1" transform="translate(-0.65 -1.16)"/>
  <path class="cls-1" d="M52.53,17a2.24,2.24,0,0,0-1.64,1.68h0.33a1.7,1.7,0,0,1,1-1.19,0.19,0.19,0,0,1,.19.19,1.24,1.24,0,0,1-.06.3l-0.15.38-0.87,2.52A4.24,4.24,0,0,0,51,22.17a0.9,0.9,0,0,0,.95,1,1.37,1.37,0,0,0,.87-0.33,5.8,5.8,0,0,0,1.54-2.14l0,0,0,0.13A5.84,5.84,0,0,0,54,22.37a0.66,0.66,0,0,0,.68.76c0.66,0,1.24-.59,1.63-1.65H56a1.54,1.54,0,0,1-1,1.17,0.31,0.31,0,0,1-.3-0.36A5.69,5.69,0,0,1,55,21.1l1.22-4H55.4L55.13,18c-0.09.32-.23,0.7-0.4,1.15a15.69,15.69,0,0,1-.8,1.81c-0.61,1.1-1.26,1.75-1.76,1.75a0.39,0.39,0,0,1-.37-0.45,3.22,3.22,0,0,1,.26-1l0.88-2.61a3,3,0,0,0,.26-1A0.64,0.64,0,0,0,52.53,17" transform="translate(-0.65 -1.16)"/>
  <path class="cls-1" d="M66.68,17a1.7,1.7,0,0,0-1.78,1.61,3,3,0,0,0,.51,1.47l0.25,0.43a2.54,2.54,0,0,1,.43,1.22,1.17,1.17,0,0,1-1.24,1.14,0.63,0.63,0,0,1-.74-0.43,0.34,0.34,0,0,1,0-.1A0.85,0.85,0,0,0,64.19,22a0.37,0.37,0,0,0-.39-0.39,0.43,0.43,0,0,0-.39.47,1.25,1.25,0,0,0,1.45,1,1.8,1.8,0,0,0,2-1.76,3.72,3.72,0,0,0-.62-1.78L66,19.17a2.47,2.47,0,0,1-.37-1.1,0.9,0.9,0,0,1,1-.79,0.52,0.52,0,0,1,.61.46c0.08,0.33.16,0.42,0.33,0.42a0.35,0.35,0,0,0,.32-0.39,0.57,0.57,0,0,0-.25-0.45A1.4,1.4,0,0,0,66.68,17" transform="translate(-0.65 -1.16)"/>
  <path class="cls-1" d="M48.9,17a1.7,1.7,0,0,0-1.78,1.61,3,3,0,0,0,.52,1.47l0.24,0.43a2.51,2.51,0,0,1,.43,1.22,1.16,1.16,0,0,1-1.24,1.14,0.63,0.63,0,0,1-.74-0.43,0.34,0.34,0,0,1,0-.1A0.89,0.89,0,0,0,46.41,22,0.37,0.37,0,0,0,46,21.65a0.43,0.43,0,0,0-.39.47,1.25,1.25,0,0,0,1.45,1,1.81,1.81,0,0,0,2-1.76,3.67,3.67,0,0,0-.62-1.78l-0.24-.42a2.44,2.44,0,0,1-.37-1.1,0.9,0.9,0,0,1,1-.79,0.52,0.52,0,0,1,.6.46c0.09,0.33.16,0.42,0.33,0.42a0.35,0.35,0,0,0,.31-0.39,0.57,0.57,0,0,0-.24-0.45A1.4,1.4,0,0,0,48.9,17" transform="translate(-0.65 -1.16)"/>
  <path class="cls-1" d="M71.68,13.26H71.5a4.3,4.3,0,0,1-1.57.26H69.85l-0.08.29h0.43c0.25,0,.35.09,0.35,0.29a3.32,3.32,0,0,1-.2.82L67.86,23h0.85l0.71-2.33c0.08-.27.15-0.49,0.21-0.65a6,6,0,0,1,.95-1.7,2.31,2.31,0,0,1,1.53-1,0.35,0.35,0,0,1,.39.36,6,6,0,0,1-.4,1.4l-0.61,1.63a4.76,4.76,0,0,0-.39,1.51,0.81,0.81,0,0,0,.78.87,2.47,2.47,0,0,0,1.79-1.6H73.32a1.75,1.75,0,0,1-1.1,1.07,0.31,0.31,0,0,1-.29-0.36,2.18,2.18,0,0,1,.17-0.66L72.29,21l0.61-1.77,0.23-.63a2.78,2.78,0,0,0,.19-0.85A0.8,0.8,0,0,0,72.38,17a1.92,1.92,0,0,0-1,.32,4.73,4.73,0,0,0-1.29,1.22l0,0Z" transform="translate(-0.65 -1.16)"/>
  <path class="cls-1" d="M77.52,13.26a0.62,0.62,0,0,0-.6.62,0.61,0.61,0,1,0,1.23,0,0.63,0.63,0,0,0-.62-0.62M76.57,17a2.53,2.53,0,0,0-1.81,1.65h0.33a2.16,2.16,0,0,1,1.18-1.19,0.25,0.25,0,0,1,.27.27,3.35,3.35,0,0,1-.29.92l-0.81,2.15-0.2.57a2.57,2.57,0,0,0-.18.83,0.84,0.84,0,0,0,.83.95,2.7,2.7,0,0,0,1.87-1.74H77.43l0,0.07a2,2,0,0,1-1.19,1.17,0.36,0.36,0,0,1-.3-0.37A4,4,0,0,1,76.27,21l0.68-1.83a3.78,3.78,0,0,0,.36-1.41A0.74,0.74,0,0,0,76.57,17" transform="translate(-0.65 -1.16)"/>
  <path class="cls-1" d="M88.56,17a2.65,2.65,0,0,0-1.64.92,5.86,5.86,0,0,0-1.67,3.7,1.34,1.34,0,0,0,1.29,1.54,2.83,2.83,0,0,0,2.31-2H88.51a2.23,2.23,0,0,1-1.69,1.58,0.74,0.74,0,0,1-.7-0.89,4.33,4.33,0,0,1,.2-1.16l0.08,0a7.8,7.8,0,0,0,2-1.14,2.18,2.18,0,0,0,1-1.61A0.79,0.79,0,0,0,88.56,17M86.42,20.3c0.46-1.7,1.3-3,1.94-3a0.46,0.46,0,0,1,.42.52c0,0.75-1.08,1.86-2.36,2.43" transform="translate(-0.65 -1.16)"/>
  <path class="cls-1" d="M49.88,1.16c-2.63,0-3.44,1.67-4.87,1.67s-2.25-1.67-4.87-1.67a5.5,5.5,0,1,0,0,11c2.62,0,3.42-1.67,4.87-1.67s2.24,1.67,4.87,1.67a5.5,5.5,0,1,0,0-11M49.19,9a1,1,0,0,0,1.06-1,2.16,2.16,0,0,0-.36-1l-0.22-.37a2.56,2.56,0,0,1-.44-1.25A1.45,1.45,0,0,1,50.74,4a1.18,1.18,0,0,1,.78.3,0.48,0.48,0,0,1,.21.38,0.3,0.3,0,0,1-.27.33C51.32,5,51.26,5,51.18,4.68a0.44,0.44,0,0,0-.51-0.4,0.77,0.77,0,0,0-.85.68,2.09,2.09,0,0,0,.32.93l0.2,0.36a3.1,3.1,0,0,1,.53,1.52A1.54,1.54,0,0,1,49.2,9.27,1.06,1.06,0,0,1,48,8.41,0.36,0.36,0,0,1,48.29,8a0.31,0.31,0,0,1,.33.33,0.66,0.66,0,0,1,0,.23,0.26,0.26,0,0,0,0,.09,0.54,0.54,0,0,0,.63.36m-9.7.25a1.16,1.16,0,0,1-1.07-1.38c0-2,1.72-3.86,2.79-3.86a0.72,0.72,0,0,1,.75.7,0.37,0.37,0,0,1-.33.43,0.39,0.39,0,0,1-.37-0.43A0.32,0.32,0,0,0,41,4.32c-0.87,0-1.86,2.74-1.86,3.84a0.67,0.67,0,0,0,.6.76,2.11,2.11,0,0,0,1.43-1.53H41.4c-0.48,1.35-1.28,1.88-1.92,1.88" transform="translate(-0.65 -1.16)"/>
</svg>
