<svg id="Layer_1" data-name="Layer 1" xmlns="http://www.w3.org/2000/svg" width="187.12" height="35.17" viewBox="0 0 187.12 35.17">
  <defs>
    <style>
      .cls-1 {
        fill: rgb(58, 58, 56);
      }
    </style>
  </defs>
  <title>logo-cape-advisors</title>
  <g>
    <path class="cls-1" d="M18.76,3.45c0.94,0.14,2.2.61,2.74,0.68,0.18,0,.54.25,0.54,1.08s0.18,2.34.25,3.13S22,9.53,21.75,9.53a1.35,1.35,0,0,1-.58-0.94A5.59,5.59,0,0,0,19.7,5.9,9,9,0,0,0,13.94,4c-5.79,0-9.5,4.79-9.5,10.22A13.08,13.08,0,0,0,5.7,20.19a10.39,10.39,0,0,0,9.11,5.76,8.26,8.26,0,0,0,3.92-1,8,8,0,0,0,3.35-3.49,1.7,1.7,0,0,1,.76-0.94c0.36,0,.4.79,0.32,1.19a13,13,0,0,1-1.44,3.64,2.89,2.89,0,0,1-1.12.94,21.75,21.75,0,0,1-6.55,1A13.94,13.94,0,0,1,3.82,23.1a12.16,12.16,0,0,1-3-8.28,12,12,0,0,1,4-8.64,14.84,14.84,0,0,1,9.75-3.31A20,20,0,0,1,18.76,3.45Z" transform="translate(-0.8 -1)"/>
    <path class="cls-1" d="M34.85,13.82a4.52,4.52,0,0,1,.72,3c0,1.4-.14,5.94-0.14,6.34a1.52,1.52,0,0,0,1.44,1.8,4,4,0,0,0,1.37-.54c0.11-.07.14,0,0.22,0.11a0.56,0.56,0,0,1,.11.36c0,0.68-1.62,2.23-3.24,2.23A2.41,2.41,0,0,1,33,25.3a0.24,0.24,0,0,0-.22-0.14,14.08,14.08,0,0,1-3.24,1.66,6.34,6.34,0,0,1-1.44.21c-1.26,0-2.48-1.55-2.48-3.35a3.11,3.11,0,0,1,.68-1.83,3.5,3.5,0,0,1,1.44-.9c0.54-.22,3.42-1,4.21-1.26s1-.43,1-0.65,0.07-2.52.07-3a2.79,2.79,0,0,0-2.81-2.41,2.5,2.5,0,0,0-1.48.4,1.87,1.87,0,0,0-.25,1.48,0.86,0.86,0,0,1-.22.4A13,13,0,0,1,26,17.13a0.53,0.53,0,0,1-.43-0.47c0-1,1-2.05,2.7-3.17a7.72,7.72,0,0,1,3.35-1.37A3.63,3.63,0,0,1,34.85,13.82ZM32.48,24.54a2,2,0,0,0,.43-0.9C33,22.78,33,21.56,33,20.84a0.34,0.34,0,0,0-.29-0.29A10.89,10.89,0,0,0,29,21.63,1.4,1.4,0,0,0,28.27,23a2.25,2.25,0,0,0,2.27,2.16A4.64,4.64,0,0,0,32.48,24.54Z" transform="translate(-0.8 -1)"/>
    <path class="cls-1" d="M53.11,14.21a7.41,7.41,0,0,1,1.69,4.72,7.9,7.9,0,0,1-3.06,6.19A9,9,0,0,1,46,27a13.85,13.85,0,0,1-2-.14,0.54,0.54,0,0,0-.25.47c0,3.49,0,5,.14,6s0.36,1.37,1.73,1.8c0.72,0.22,1,.4,1,0.65a0.84,0.84,0,0,1-.94.47c-0.79,0-2.88-.18-4.28-0.18-0.86,0-1.22.11-2.3,0.11A1,1,0,0,1,38,35.63a0.91,0.91,0,0,1,.83-0.54c1.91-.4,2.09-0.72,2.23-3.31,0.07-1.19.11-4.14,0.11-7.81,0-2.45,0-5.15,0-7.27,0-1.51-.18-1.76-0.29-1.84a3.69,3.69,0,0,1-1.33-1.15,1.15,1.15,0,0,1,.5-0.65,18.15,18.15,0,0,0,2.74-1.26,4.05,4.05,0,0,1,.72-0.32,0.68,0.68,0,0,1,.4.43c-0.07.58-.07,1.26-0.11,1.84a0.19,0.19,0,0,0,.29.18,16.63,16.63,0,0,1,2.34-1.3,7.61,7.61,0,0,1,2.66-.43A6,6,0,0,1,53.11,14.21Zm-8.78.47a1.66,1.66,0,0,0-.47,1.08,42.56,42.56,0,0,0-.07,6.48,3.44,3.44,0,0,0,.47,1.58,5,5,0,0,0,3.6,2,2.87,2.87,0,0,0,1.66-.61A8,8,0,0,0,52,19.9a6.27,6.27,0,0,0-1.48-4.39A5.15,5.15,0,0,0,44.32,14.68Z" transform="translate(-0.8 -1)"/>
    <path class="cls-1" d="M68.08,13.53a4,4,0,0,1,1.26,3,0.73,0.73,0,0,1-.68.61c-0.4,0-6.55,0-8.21,0a0.46,0.46,0,0,0-.29.29A4.61,4.61,0,0,0,60,18.68a7.37,7.37,0,0,0,1.37,4.1,5.11,5.11,0,0,0,4,2c1.58,0,2.66-.4,3.28-1.29A0.86,0.86,0,0,1,69.13,23a0.37,0.37,0,0,1,.29.43,2,2,0,0,1-.25.86A6.14,6.14,0,0,1,63.94,27c-3.89,0-6.48-3-6.48-7.16a7.68,7.68,0,0,1,4.32-7.06,7.6,7.6,0,0,1,2.74-.65A5.19,5.19,0,0,1,68.08,13.53Zm-7.56,2.23a0.33,0.33,0,0,0,.14.4c0.94,0,2.84,0,4.64,0,0.86,0,1.22-.18,1.22-0.9a2.42,2.42,0,0,0-2.38-2.16A3.9,3.9,0,0,0,60.52,15.76Z" transform="translate(-0.8 -1)"/>
    <path class="cls-1" d="M84,3.81c0.29,1,.9,2.59,1.58,4.46,1.87,5.25,4.57,12.38,5.18,13.86,1.19,3,1.76,3.24,3.38,3.63a1,1,0,0,1,.86.61c0,0.25-.25.47-1.15,0.47-1.19,0-3-.18-4.54-0.18-1.15,0-1.66.07-2.56,0.07s-1.12-.25-1.12-0.43a0.84,0.84,0,0,1,.86-0.58c1.73-.36,1.58-1.08,1.44-1.84a53.94,53.94,0,0,0-2-6.16c0-.14-0.18-0.36-1.22-0.36-2,0-5.15,0-5.9.14a0.64,0.64,0,0,0-.4.29,28.62,28.62,0,0,0-1.87,6.3c0,0.43.14,1,1.76,1.55a1.12,1.12,0,0,1,1,.65c0,0.36-.54.47-1,0.47s-1.51-.11-2.84-0.11-3.2.18-3.74,0.18-0.83-.14-0.83-0.36a1,1,0,0,1,.79-0.72c1.8-.61,2.27-0.72,3.31-3.06C75.79,20.87,79.89,10,81.47,6.11a1.88,1.88,0,0,0,.22-0.76,0.43,0.43,0,0,1,.07-0.29c0.32-.43.83-1.37,1.08-1.76a0.91,0.91,0,0,1,.58-0.43C83.56,2.87,83.7,3,84,3.81Zm1.15,11.66c-0.61-1.83-2.48-7.23-2.81-7.74-0.11-.22-0.18-0.25-0.29,0-0.65,1.73-2.52,6.77-2.81,7.88a0.18,0.18,0,0,0,.18.25c1.44,0,4.43,0,5.62-.11A0.31,0.31,0,0,0,85.14,15.47Z" transform="translate(-0.8 -1)"/>
    <path class="cls-1" d="M106.64,12.27c0.14,0,.25-0.22.29-0.4a62.31,62.31,0,0,0,0-7.34c0-.18,0-0.61-1.69-1.48-0.32-.18-0.36-0.25-0.36-0.32a1.13,1.13,0,0,1,.61-0.61,22.56,22.56,0,0,0,3.67-1A1.4,1.4,0,0,1,109.59,1a0.53,0.53,0,0,1,.29.58c-0.18,1.91-.32,3.2-0.32,14.22,0,7.27.07,7.52,0.11,8.21,0,1.33.32,1.48,0.54,1.48,0.4,0,1.58-.25,1.94-0.29a0.26,0.26,0,0,1,.22.22,1.51,1.51,0,0,1-.61.9,26.06,26.06,0,0,0-3.24.72,4.89,4.89,0,0,1-1.3.36,0.6,0.6,0,0,1-.4-0.47c0-.32.07-1,0.07-1.48a0.23,0.23,0,0,0-.21-0.22A7,7,0,0,1,102,27a6.29,6.29,0,0,1-4.5-2,7.5,7.5,0,0,1-1.73-4.93,7.46,7.46,0,0,1,3.82-6.62,10.4,10.4,0,0,1,4.75-1.37A13,13,0,0,1,106.64,12.27Zm-6.44,2.3a7.15,7.15,0,0,0-1.51,4.54c0,2.88,2,6.19,5.11,6.19a4.32,4.32,0,0,0,2.63-.87,6.26,6.26,0,0,0,.58-2.37c0-2.3,0-4.28-.11-6a3.05,3.05,0,0,0-.79-1.37,4.87,4.87,0,0,0-3.1-1.4A4.1,4.1,0,0,0,100.19,14.57Z" transform="translate(-0.8 -1)"/>
    <path class="cls-1" d="M113,12.45c0.65,0,2.59.18,3,.18,0.94,0,1.84-.07,2.23-0.07s0.83,0.14.83,0.4a0.89,0.89,0,0,1-.79.54c-1,.29-0.94.79-0.79,1.22a53.94,53.94,0,0,0,3.2,7.6c0.07,0.11.22,0,.29-0.14,0.47-1.12,2.41-6.12,2.74-7.23,0.29-.94,0-1.15-1.12-1.55a0.73,0.73,0,0,1-.58-0.47c0-.22.25-0.4,0.72-0.4,0.72,0,1,.11,1.94.11,0.65,0,1.76-.18,2.45-0.18a0.67,0.67,0,0,1,.72.4c0,0.22-.22.32-0.76,0.54a3.89,3.89,0,0,0-1.8,1.4c-0.5.79-1.87,4.28-3,6.8s-1,2.91-1.62,4.82a1.19,1.19,0,0,1-.86.94,0.81,0.81,0,0,1-.47-0.65c-0.4-1.19-.47-1.58-1.3-3.67a85.49,85.49,0,0,0-3.74-8.46,2.22,2.22,0,0,0-1.51-1.19c-0.54-.18-0.68-0.32-0.68-0.54A0.88,0.88,0,0,1,113,12.45Z" transform="translate(-0.8 -1)"/>
    <path class="cls-1" d="M129.75,13.2c1.33-.29,3-1.08,3.56-1.22a0.67,0.67,0,0,1,.32.4c0,0.4-.21,5.08-0.21,7.13s0,3.53.07,4.79,0.83,1.22,1.73,1.51c0.58,0.18.79,0.36,0.79,0.61a0.8,0.8,0,0,1-.83.36c-0.25,0-2.05-.11-2.81-0.11-1.19,0-2.45.14-3.06,0.14s-0.94-.14-0.94-0.4a0.94,0.94,0,0,1,.86-0.58,1.88,1.88,0,0,0,1.44-1,35.08,35.08,0,0,0,.14-3.71c0-.07,0-5.18,0-5.62,0-.25-0.43-0.54-1.48-1.3a0.47,0.47,0,0,1-.29-0.4A0.82,0.82,0,0,1,129.75,13.2Zm4.14-6.62a1.92,1.92,0,0,1-1.73,1.76A2.09,2.09,0,0,1,131,7.91a1.89,1.89,0,0,1-.54-1.33,2.5,2.5,0,0,1,.43-1.29,2.13,2.13,0,0,1,1.4-.47A1.83,1.83,0,0,1,133.89,6.58Z" transform="translate(-0.8 -1)"/>
    <path class="cls-1" d="M145,12.34a6.61,6.61,0,0,1,1.15.4,0.75,0.75,0,0,1,.29.5c0,0.65.11,1.87,0.11,2.12a0.56,0.56,0,0,1-.43.65,0.92,0.92,0,0,1-.54-0.61C144.8,13.71,143.9,13,142.71,13a2.3,2.3,0,0,0-2.16,2.23c0,1.22,1.15,2.16,3.56,3.49,2,1.19,2.81,2.41,2.81,4a4.57,4.57,0,0,1-2.09,3.53,6.12,6.12,0,0,1-3,.83,7.25,7.25,0,0,1-3.49-.79,9.06,9.06,0,0,1-.54-2.74c0-.4.07-0.76,0.29-0.76a1.34,1.34,0,0,1,.76.83c1,1.84,2,2.56,3.28,2.56a2.72,2.72,0,0,0,1.44-.54,2.69,2.69,0,0,0,.83-2,2.77,2.77,0,0,0-1.62-2.41c-0.86-.61-1.08-0.79-2.2-1.51a4.45,4.45,0,0,1-2.23-3.64,3.74,3.74,0,0,1,2-3.24,5.36,5.36,0,0,1,2.88-.76A8,8,0,0,1,145,12.34Z" transform="translate(-0.8 -1)"/>
    <path class="cls-1" d="M164.27,19.47a7.74,7.74,0,0,1-3.13,6.19,7.18,7.18,0,0,1-4.46,1.44,7.83,7.83,0,0,1-4.79-1.87,8,8,0,0,1-2.66-5.51,6.94,6.94,0,0,1,2.52-5.62,8.06,8.06,0,0,1,5.33-2A7.22,7.22,0,0,1,164.27,19.47ZM154,14.25a6.75,6.75,0,0,0-1.76,4.61,10.78,10.78,0,0,0,.43,3.2c0.9,2.7,3,4,4.68,4a3.3,3.3,0,0,0,2.2-1.19,8.54,8.54,0,0,0-.18-10.26,4.54,4.54,0,0,0-3-1.4A3.79,3.79,0,0,0,154,14.25Z" transform="translate(-0.8 -1)"/>
    <path class="cls-1" d="M167.59,13.38a16.54,16.54,0,0,0,2.66-1.15A2.49,2.49,0,0,1,171,11.8a0.58,0.58,0,0,1,.32.43c0,0.65-.07,1.29-0.07,2a0.18,0.18,0,0,0,.25.14c1.4-1.33,3-2.23,4.1-2.23,1.48,0,1.8.9,1.8,1.22a1.72,1.72,0,0,1-.22.5,9.07,9.07,0,0,1-1.48,1.66,0.93,0.93,0,0,1-.5-0.11,3.4,3.4,0,0,0-2-.79,2.11,2.11,0,0,0-1.58.5,1.36,1.36,0,0,0-.36.79c0,0.72.18,7.24,0.22,7.77,0.07,1,.29,1.73.94,1.84,0.47,0.11,1.12.29,1.66,0.43a0.68,0.68,0,0,1,.65.58c0,0.18-.32.32-0.86,0.32-0.9,0-2.16-.18-4.25-0.18-1.08,0-1.51.14-2.38,0.14a0.64,0.64,0,0,1-.76-0.43,1,1,0,0,1,.72-0.47c1.4-.47,1.51-0.83,1.55-3V16a1.15,1.15,0,0,0-.4-1.08,5.48,5.48,0,0,1-1.22-1A0.69,0.69,0,0,1,167.59,13.38Z" transform="translate(-0.8 -1)"/>
    <path class="cls-1" d="M186,12.34a6.59,6.59,0,0,1,1.15.4,0.75,0.75,0,0,1,.29.5c0,0.65.11,1.87,0.11,2.12a0.56,0.56,0,0,1-.43.65,0.92,0.92,0,0,1-.54-0.61C185.8,13.71,184.9,13,183.71,13a2.3,2.3,0,0,0-2.16,2.23c0,1.22,1.15,2.16,3.56,3.49,2,1.19,2.81,2.41,2.81,4a4.57,4.57,0,0,1-2.09,3.53,6.12,6.12,0,0,1-3,.83,7.26,7.26,0,0,1-3.49-.79,9.07,9.07,0,0,1-.54-2.74c0-.4.07-0.76,0.29-0.76a1.34,1.34,0,0,1,.76.83c1,1.84,2,2.56,3.28,2.56a2.73,2.73,0,0,0,1.44-.54,2.69,2.69,0,0,0,.83-2,2.77,2.77,0,0,0-1.62-2.41c-0.86-.61-1.08-0.79-2.2-1.51a4.45,4.45,0,0,1-2.23-3.64,3.74,3.74,0,0,1,2-3.24,5.37,5.37,0,0,1,2.88-.76A8.05,8.05,0,0,1,186,12.34Z" transform="translate(-0.8 -1)"/>
  </g>
</svg>
